<?xml version="1.0" standalone="no"?>
<!DOCTYPE svg PUBLIC "-//W3C//DTD SVG 20010904//EN"
 "http://www.w3.org/TR/2001/REC-SVG-20010904/DTD/svg10.dtd">
<svg version="1.0" xmlns="http://www.w3.org/2000/svg"
 width="260.000000pt" height="260.000000pt" viewBox="0 0 260.000000 260.000000"
 preserveAspectRatio="xMidYMid meet">
<metadata>
Created by potrace 1.14, written by Peter Selinger 2001-2017
</metadata>
<g transform="translate(0.000000,260.000000) scale(0.100000,-0.100000)"
fill="#000000" stroke="none">
<path d="M1198 2565 c-38 -13 -68 -22 -68 -19 0 2 -13 -2 -30 -11 -16 -9 -30
-13 -30 -11 0 3 -12 1 -27 -5 -16 -6 -122 -40 -238 -76 -116 -35 -327 -101
-470 -145 -143 -44 -268 -82 -278 -85 -9 -3 -17 -8 -18 -12 0 -3 -2 -15 -4
-26 -2 -11 1 -23 8 -27 9 -6 8 -8 -2 -8 -11 0 -11 -3 -1 -15 7 -8 8 -15 3 -15
-12 0 -13 -31 -2 -45 4 -6 4 -17 -1 -25 -5 -9 -5 -19 1 -27 6 -7 7 -18 3 -25
-12 -19 -12 -72 0 -80 7 -5 6 -8 -3 -8 -11 0 -11 -3 -1 -15 7 -8 8 -15 3 -15
-12 0 -13 -31 -2 -45 4 -6 4 -17 -1 -25 -5 -9 -5 -19 1 -27 6 -7 7 -18 3 -25
-12 -19 -12 -72 0 -80 7 -5 6 -8 -3 -8 -11 0 -11 -3 -1 -15 7 -8 8 -15 3 -15
-12 0 -13 -31 -2 -45 4 -6 4 -17 -1 -25 -5 -9 -5 -19 1 -27 6 -7 7 -18 3 -25
-12 -19 -12 -72 0 -80 7 -5 6 -8 -3 -8 -11 0 -11 -3 -1 -15 7 -8 8 -15 3 -15
-12 0 -13 -31 -1 -47 6 -7 5 -14 -2 -18 -8 -5 -7 -11 2 -23 11 -13 11 -14 0
-8 -11 7 -12 4 -3 -13 7 -11 16 -21 21 -21 17 0 19 -1 55 -16 19 -8 36 -14 37
-13 2 1 28 -6 58 -16 30 -9 82 -25 115 -35 33 -10 157 -48 275 -84 118 -37
267 -83 330 -102 63 -19 133 -41 155 -49 22 -8 80 -25 128 -39 l88 -25 57 30
c31 16 84 47 117 68 33 21 68 37 78 35 27 -4 79 16 106 40 102 90 38 267 -98
272 -25 0 -55 -3 -66 -9 -39 -19 -85 -71 -91 -104 -6 -31 -47 -73 -72 -73 -6
0 -12 -6 -15 -12 -5 -18 2 -20 -472 128 -82 25 -165 50 -183 56 l-32 9 2 216
3 216 45 14 c25 7 53 16 62 18 10 2 84 25 165 51 81 25 153 47 158 48 6 2 57
17 115 36 58 18 113 33 122 32 9 0 76 -20 150 -43 73 -24 135 -44 138 -44 10
-2 128 -38 215 -65 162 -51 300 -94 310 -96 6 -1 42 -12 80 -24 126 -39 357
-110 361 -110 2 0 4 143 4 318 l0 318 -92 28 c-51 16 -111 34 -133 41 -22 7
-87 28 -145 45 -58 18 -132 41 -165 51 -177 55 -452 140 -465 144 -8 2 -68 20
-132 39 -64 20 -127 36 -140 35 -13 0 -53 -11 -90 -24z m193 -234 c59 -19 253
-79 494 -153 55 -16 111 -34 125 -38 14 -5 86 -27 160 -50 74 -23 141 -43 148
-45 8 -3 12 -30 12 -89 0 -85 0 -85 -22 -76 -13 5 -70 23 -128 40 -58 17 -116
35 -130 40 -14 5 -65 21 -115 35 -49 15 -97 30 -105 33 -8 3 -20 6 -25 7 -15
4 -245 75 -275 85 -14 5 -72 23 -129 40 l-103 32 -87 -27 c-47 -14 -135 -41
-196 -60 -60 -19 -204 -64 -320 -99 -115 -36 -228 -71 -250 -78 l-40 -13 -1
-250 c-1 -138 -2 -255 -3 -262 -1 -8 -21 -5 -68 11 l-66 22 -1 298 c-1 188 3
301 9 306 10 8 131 46 880 275 66 20 122 38 124 41 6 6 40 -2 112 -25z"/>
<path d="M1235 1707 c-176 -55 -254 -75 -295 -73 -124 7 -203 -104 -155 -217
46 -110 201 -124 272 -24 19 26 39 36 130 64 l108 33 80 -24 c44 -13 141 -43
215 -66 74 -23 142 -43 150 -45 42 -10 216 -68 222 -74 12 -11 -11 -103 -42
-166 -59 -122 -206 -254 -399 -358 -53 -28 -98 -52 -101 -53 -3 0 -31 -12 -64
-27 l-59 -27 -81 26 c-44 14 -88 27 -96 29 -8 2 -15 4 -15 5 0 1 -7 3 -15 5
-8 2 -89 27 -180 55 -91 28 -187 58 -215 67 -27 8 -138 42 -245 75 -107 33
-229 70 -270 83 -41 13 -80 24 -85 26 -6 2 -11 1 -13 -4 -5 -10 8 -69 17 -82
4 -5 14 -26 21 -45 14 -35 78 -151 89 -160 3 -3 17 -21 31 -40 114 -164 340
-343 620 -492 96 -51 320 -152 395 -178 l50 -17 95 39 c367 152 633 314 825
503 219 215 316 419 332 701 l5 91 -29 8 c-36 11 -32 10 -73 22 -196 61 -768
239 -815 253 -33 10 -114 35 -180 55 -66 21 -131 40 -145 44 -15 5 -48 0 -85
-12z m1048 -519 c41 -12 45 -23 26 -93 -44 -169 -159 -331 -350 -491 -102 -85
-413 -259 -587 -328 -88 -35 -76 -38 -309 75 -164 79 -277 145 -381 220 -71
52 -75 53 258 -51 146 -45 286 -88 312 -96 47 -15 48 -14 150 27 378 155 647
375 742 608 22 54 42 136 38 153 -1 3 13 2 31 -4 17 -5 49 -14 70 -20z"/>
</g>
</svg>
